<svg width="52" height="52" viewBox="0 0 52 52" fill="none" xmlns="http://www.w3.org/2000/svg">
<rect x="0.233236" y="0.233236" width="51.5335" height="51.5335" rx="6.23907" fill="#F9F9F9" stroke="#EEE7E7" stroke-width="0.466472"/>
<path d="M26 26C24.7591 26 23.5898 25.7648 22.492 25.2943C21.3943 24.8239 20.4398 24.183 19.6284 23.3716C18.817 22.5602 18.1761 21.6057 17.7057 20.508C17.2352 19.4102 17 18.2409 17 17C17 15.7455 17.2352 14.5727 17.7057 13.4818C18.1761 12.3909 18.817 11.4398 19.6284 10.6284C20.4398 9.81705 21.3943 9.17614 22.492 8.70568C23.5898 8.23523 24.7591 8 26 8C27.2545 8 28.4273 8.23523 29.5182 8.70568C30.6091 9.17614 31.5602 9.81705 32.3716 10.6284C33.183 11.4398 33.8239 12.3909 34.2943 13.4818C34.7648 14.5727 35 15.7455 35 17C35 18.2409 34.7648 19.4102 34.2943 20.508C33.8239 21.6057 33.183 22.5602 32.3716 23.3716C31.5602 24.183 30.6091 24.8239 29.5182 25.2943C28.4273 25.7648 27.2545 26 26 26ZM25.4886 23.3614C25.625 23.4977 25.7818 23.5659 25.9591 23.5659C26.1364 23.5659 26.2932 23.4977 26.4295 23.3614L32.3205 17.4705C32.4568 17.3341 32.525 17.1705 32.525 16.9795C32.525 16.7886 32.4568 16.625 32.3205 16.4886L26.4295 10.5977C26.2932 10.4614 26.1364 10.3932 25.9591 10.3932C25.7818 10.3932 25.625 10.4614 25.4886 10.5977L19.5977 16.4886C19.4614 16.625 19.3932 16.7886 19.3932 16.9795C19.3932 17.1705 19.4614 17.3341 19.5977 17.4705L25.4886 23.3614ZM22.7068 19.4341V16.1614C22.7068 15.9159 22.7818 15.7182 22.9318 15.5682C23.0818 15.4182 23.2795 15.3432 23.525 15.3432H26.9205L26.0614 14.4432L27.2068 13.2977L30.0705 16.1614L27.2068 19.025L26.0614 17.8795L26.9205 16.9795H24.3432V19.4341H22.7068ZM26 24.3636C28.0591 24.3636 29.8011 23.6511 31.2261 22.2261C32.6511 20.8011 33.3636 19.0591 33.3636 17C33.3636 14.9409 32.6511 13.1989 31.2261 11.7739C29.8011 10.3489 28.0591 9.63636 26 9.63636C23.9409 9.63636 22.1989 10.3489 20.7739 11.7739C19.3489 13.1989 18.6364 14.9409 18.6364 17C18.6364 19.0591 19.3489 20.8011 20.7739 22.2261C22.1989 23.6511 23.9409 24.3636 26 24.3636Z" fill="#1C1B1F"/>
<path d="M16.6534 42.0795C16.3939 42.0758 16.1383 42.0284 15.8864 41.9375C15.6364 41.8466 15.4091 41.6951 15.2045 41.483C15 41.2708 14.8362 40.9858 14.7131 40.6278C14.5919 40.2699 14.5312 39.8229 14.5312 39.2869C14.5312 38.7794 14.5814 38.3286 14.6818 37.9347C14.7841 37.5407 14.9309 37.2083 15.1222 36.9375C15.3134 36.6648 15.5445 36.4574 15.8153 36.3153C16.0862 36.1733 16.3902 36.1023 16.7273 36.1023C17.0739 36.1023 17.3816 36.1705 17.6506 36.3068C17.9195 36.4432 18.1373 36.6316 18.304 36.8722C18.4725 37.1127 18.5795 37.3864 18.625 37.6932H17.7585C17.6998 37.4508 17.5833 37.2528 17.4091 37.0994C17.2348 36.946 17.0076 36.8693 16.7273 36.8693C16.3011 36.8693 15.9688 37.0549 15.7301 37.4261C15.4934 37.7973 15.3741 38.3134 15.3722 38.9744H15.4148C15.5152 38.8097 15.6383 38.6695 15.7841 38.554C15.9318 38.4366 16.0966 38.3466 16.2784 38.2841C16.4621 38.2197 16.6553 38.1875 16.858 38.1875C17.1951 38.1875 17.5 38.2699 17.7727 38.4347C18.0473 38.5975 18.2661 38.8229 18.429 39.1108C18.5919 39.3987 18.6733 39.7282 18.6733 40.0994C18.6733 40.4706 18.589 40.8068 18.4205 41.108C18.2538 41.4091 18.0189 41.6477 17.7159 41.8239C17.4129 41.9981 17.0587 42.0833 16.6534 42.0795ZM16.6506 41.3409C16.8741 41.3409 17.0739 41.286 17.25 41.1761C17.4261 41.0663 17.5653 40.9186 17.6676 40.733C17.7699 40.5473 17.821 40.34 17.821 40.1108C17.821 39.8873 17.7708 39.6837 17.6705 39.5C17.572 39.3163 17.4356 39.1705 17.2614 39.0625C17.089 38.9545 16.892 38.9006 16.6705 38.9006C16.5019 38.9006 16.3456 38.9328 16.2017 38.9972C16.0597 39.0616 15.9347 39.1506 15.8267 39.2642C15.7188 39.3778 15.6335 39.5085 15.571 39.6562C15.5104 39.8021 15.4801 39.9564 15.4801 40.1193C15.4801 40.3371 15.5303 40.5388 15.6307 40.7244C15.733 40.91 15.8722 41.0597 16.0483 41.1733C16.2263 41.285 16.4271 41.3409 16.6506 41.3409ZM21.9048 42V36.1818H22.7827V38.9602H22.8537L25.294 36.1818H26.3991L24.0526 38.8011L26.4077 42H25.3509L23.4702 39.4006L22.7827 40.1903V42H21.9048ZM27.1491 42V37.6364H27.9645V38.3466H28.0185C28.1094 38.1061 28.258 37.9186 28.4645 37.7841C28.6709 37.6477 28.9181 37.5795 29.206 37.5795C29.4976 37.5795 29.742 37.6477 29.9389 37.7841C30.1378 37.9205 30.2846 38.108 30.3793 38.3466H30.4247C30.5289 38.1136 30.6946 37.928 30.9219 37.7898C31.1491 37.6496 31.42 37.5795 31.7344 37.5795C32.1302 37.5795 32.4531 37.7036 32.7031 37.9517C32.955 38.1998 33.081 38.5739 33.081 39.0739V42H32.2315V39.1534C32.2315 38.858 32.151 38.6439 31.9901 38.5114C31.8291 38.3788 31.6368 38.3125 31.4134 38.3125C31.1368 38.3125 30.9219 38.3977 30.7685 38.5682C30.6151 38.7367 30.5384 38.9536 30.5384 39.2188V42H29.6918V39.0994C29.6918 38.8627 29.6179 38.6723 29.4702 38.5284C29.3224 38.3845 29.1302 38.3125 28.8935 38.3125C28.7325 38.3125 28.5838 38.3551 28.4474 38.4403C28.313 38.5237 28.2041 38.6402 28.1207 38.7898C28.0393 38.9394 27.9986 39.1127 27.9986 39.3097V42H27.1491ZM37.4893 38.7017L36.7195 38.8381C36.6873 38.7396 36.6361 38.6458 36.5661 38.5568C36.4979 38.4678 36.4051 38.3949 36.2876 38.3381C36.1702 38.2812 36.0234 38.2528 35.8473 38.2528C35.6068 38.2528 35.406 38.3068 35.245 38.4148C35.084 38.5208 35.0036 38.6581 35.0036 38.8267C35.0036 38.9725 35.0575 39.09 35.1655 39.179C35.2734 39.268 35.4477 39.3409 35.6882 39.3977L36.3814 39.5568C36.7829 39.6496 37.0821 39.7926 37.2791 39.9858C37.4761 40.179 37.5746 40.4299 37.5746 40.7386C37.5746 41 37.4988 41.233 37.3473 41.4375C37.1977 41.6402 36.9884 41.7992 36.7195 41.9148C36.4524 42.0303 36.1428 42.0881 35.7905 42.0881C35.3018 42.0881 34.9032 41.9839 34.5945 41.7756C34.2857 41.5653 34.0964 41.267 34.0263 40.8807L34.8473 40.7557C34.8984 40.9697 35.0036 41.1316 35.1626 41.2415C35.3217 41.3494 35.5291 41.4034 35.7848 41.4034C36.0632 41.4034 36.2857 41.3456 36.4524 41.2301C36.6191 41.1127 36.7024 40.9697 36.7024 40.8011C36.7024 40.6648 36.6513 40.5502 36.549 40.4574C36.4486 40.3646 36.2943 40.2945 36.0859 40.2472L35.3473 40.0852C34.9401 39.9924 34.639 39.8447 34.4439 39.642C34.2507 39.4394 34.1541 39.1828 34.1541 38.8722C34.1541 38.6146 34.2261 38.3892 34.37 38.196C34.514 38.0028 34.7128 37.8523 34.9666 37.7443C35.2204 37.6345 35.5111 37.5795 35.8388 37.5795C36.3104 37.5795 36.6816 37.6818 36.9524 37.8864C37.2232 38.089 37.4022 38.3608 37.4893 38.7017Z" fill="#263238" fill-opacity="0.5"/>
</svg>
